# xmcd
#
# Track frame offsets:
#  182
#  16317
#  35475
#
# Disc length: 943 seconds
#
# Revision: 0
# Processed by: cddbd v1.5.1PL2 Copyright (c) Steve Scherf et al.
# Submitted via: Collectorz.com_Music_Collector 6.9
#
DISCID=1a03ad03
DTITLE=Electrib 101 - Talking with Myself
DYEAR=1990
DGENRE=Alternative
TTITLE0=Talking with Myself - 7"
TTITLE1=Talking with Myself - Edit
TTITLE2=Talking with Myself - 12"
EXTD=
EXTT0=
EXTT1=
EXTT2=
PLAYORDER=
